<mxfile host="Electron" agent="Mozilla/5.0 (Macintosh; Intel Mac OS X 10_15_7) AppleWebKit/537.36 (KHTML, like Gecko) draw.io/26.2.2 Chrome/134.0.6998.178 Electron/35.1.2 Safari/537.36" version="26.2.2">
  <diagram id="C5RBs43oDa-KdzZeNtuy" name="Page-1">
    <mxGraphModel dx="808" dy="935" grid="1" gridSize="10" guides="1" tooltips="1" connect="1" arrows="1" fold="1" page="1" pageScale="1" pageWidth="827" pageHeight="1169" math="0" shadow="0">
      <root>
        <mxCell id="WIyWlLk6GJQsqaUBKTNV-0" />
        <mxCell id="WIyWlLk6GJQsqaUBKTNV-1" parent="WIyWlLk6GJQsqaUBKTNV-0" />
        <mxCell id="WIyWlLk6GJQsqaUBKTNV-3" value="EJEMPLARES" style="rounded=0;whiteSpace=wrap;html=1;fontSize=12;glass=0;strokeWidth=1;shadow=0;fillColor=#1ba1e2;fontColor=#ffffff;strokeColor=#006EAF;" parent="WIyWlLk6GJQsqaUBKTNV-1" vertex="1">
          <mxGeometry x="20" y="460" width="120" height="40" as="geometry" />
        </mxCell>
        <mxCell id="WIyWlLk6GJQsqaUBKTNV-10" value="Reserva de Ejempleres socio ACTIVO" style="rhombus;whiteSpace=wrap;html=1;shadow=0;fontFamily=Helvetica;fontSize=12;align=center;strokeWidth=1;spacing=6;spacingTop=-4;" parent="WIyWlLk6GJQsqaUBKTNV-1" vertex="1">
          <mxGeometry x="15" y="120" width="130" height="80" as="geometry" />
        </mxCell>
        <mxCell id="TD6lh_5WmE-RjXGW3gYd-2" value="SUCURSALES" style="rounded=0;whiteSpace=wrap;html=1;fontSize=12;glass=0;strokeWidth=1;shadow=0;fillColor=#1ba1e2;fontColor=#ffffff;strokeColor=#006EAF;" parent="WIyWlLk6GJQsqaUBKTNV-1" vertex="1">
          <mxGeometry x="460" y="460" width="120" height="40" as="geometry" />
        </mxCell>
        <mxCell id="TD6lh_5WmE-RjXGW3gYd-3" value="&amp;nbsp;SOCIO" style="rounded=0;whiteSpace=wrap;html=1;fontSize=12;glass=0;strokeWidth=1;shadow=0;fillColor=#1ba1e2;fontColor=#ffffff;strokeColor=#006EAF;" parent="WIyWlLk6GJQsqaUBKTNV-1" vertex="1">
          <mxGeometry x="40" y="40" width="480" height="40" as="geometry" />
        </mxCell>
        <mxCell id="TD6lh_5WmE-RjXGW3gYd-4" value="RESERVA" style="rounded=0;whiteSpace=wrap;html=1;fontSize=12;glass=0;strokeWidth=1;shadow=0;fillColor=#1ba1e2;fontColor=#ffffff;strokeColor=#006EAF;" parent="WIyWlLk6GJQsqaUBKTNV-1" vertex="1">
          <mxGeometry x="30" y="240" width="120" height="40" as="geometry" />
        </mxCell>
        <mxCell id="TD6lh_5WmE-RjXGW3gYd-5" value="" style="endArrow=none;html=1;rounded=0;exitX=0.5;exitY=0;exitDx=0;exitDy=0;" parent="WIyWlLk6GJQsqaUBKTNV-1" source="WIyWlLk6GJQsqaUBKTNV-10" edge="1">
          <mxGeometry width="50" height="50" relative="1" as="geometry">
            <mxPoint x="30" y="130" as="sourcePoint" />
            <mxPoint x="80" y="80" as="targetPoint" />
          </mxGeometry>
        </mxCell>
        <mxCell id="TD6lh_5WmE-RjXGW3gYd-6" value="" style="endArrow=none;html=1;rounded=0;" parent="WIyWlLk6GJQsqaUBKTNV-1" edge="1">
          <mxGeometry width="50" height="50" relative="1" as="geometry">
            <mxPoint x="80" y="240" as="sourcePoint" />
            <mxPoint x="80" y="200" as="targetPoint" />
          </mxGeometry>
        </mxCell>
        <mxCell id="TD6lh_5WmE-RjXGW3gYd-8" value="(1,1)" style="rounded=0;whiteSpace=wrap;html=1;fillColor=#a20025;fontColor=#ffffff;strokeColor=#6F0000;" parent="WIyWlLk6GJQsqaUBKTNV-1" vertex="1">
          <mxGeometry x="20" y="90" width="50" height="20" as="geometry" />
        </mxCell>
        <mxCell id="TD6lh_5WmE-RjXGW3gYd-9" value="(0,n)" style="rounded=0;whiteSpace=wrap;html=1;fillColor=#a20025;fontColor=#ffffff;strokeColor=#6F0000;" parent="WIyWlLk6GJQsqaUBKTNV-1" vertex="1">
          <mxGeometry x="20" y="210" width="50" height="20" as="geometry" />
        </mxCell>
        <mxCell id="TD6lh_5WmE-RjXGW3gYd-10" value="Mirar sucursal" style="rhombus;whiteSpace=wrap;html=1;shadow=0;fontFamily=Helvetica;fontSize=12;align=center;strokeWidth=1;spacing=6;spacingTop=-4;" parent="WIyWlLk6GJQsqaUBKTNV-1" vertex="1">
          <mxGeometry x="270" y="440" width="100" height="80" as="geometry" />
        </mxCell>
        <mxCell id="TD6lh_5WmE-RjXGW3gYd-12" value="" style="endArrow=none;html=1;rounded=0;exitX=0;exitY=0.5;exitDx=0;exitDy=0;entryX=1;entryY=0.5;entryDx=0;entryDy=0;" parent="WIyWlLk6GJQsqaUBKTNV-1" source="TD6lh_5WmE-RjXGW3gYd-2" target="TD6lh_5WmE-RjXGW3gYd-10" edge="1">
          <mxGeometry width="50" height="50" relative="1" as="geometry">
            <mxPoint x="660" y="555" as="sourcePoint" />
            <mxPoint x="729" y="488" as="targetPoint" />
          </mxGeometry>
        </mxCell>
        <mxCell id="TD6lh_5WmE-RjXGW3gYd-13" value="Mirar ejemplar" style="rhombus;whiteSpace=wrap;html=1;shadow=0;fontFamily=Helvetica;fontSize=12;align=center;strokeWidth=1;spacing=6;spacingTop=-4;" parent="WIyWlLk6GJQsqaUBKTNV-1" vertex="1">
          <mxGeometry x="30" y="330" width="100" height="80" as="geometry" />
        </mxCell>
        <mxCell id="TD6lh_5WmE-RjXGW3gYd-15" value="" style="endArrow=none;html=1;rounded=0;entryX=0.5;entryY=1;entryDx=0;entryDy=0;" parent="WIyWlLk6GJQsqaUBKTNV-1" source="WIyWlLk6GJQsqaUBKTNV-3" target="TD6lh_5WmE-RjXGW3gYd-13" edge="1">
          <mxGeometry width="50" height="50" relative="1" as="geometry">
            <mxPoint x="80" y="450" as="sourcePoint" />
            <mxPoint x="260" y="360" as="targetPoint" />
          </mxGeometry>
        </mxCell>
        <mxCell id="TD6lh_5WmE-RjXGW3gYd-16" value="(0,n)" style="rounded=0;whiteSpace=wrap;html=1;fillColor=#a20025;fontColor=#ffffff;strokeColor=#6F0000;" parent="WIyWlLk6GJQsqaUBKTNV-1" vertex="1">
          <mxGeometry x="20" y="510" width="50" height="20" as="geometry" />
        </mxCell>
        <mxCell id="TD6lh_5WmE-RjXGW3gYd-17" value="(1,1)" style="rounded=0;whiteSpace=wrap;html=1;fillColor=#a20025;fontColor=#ffffff;strokeColor=#6F0000;" parent="WIyWlLk6GJQsqaUBKTNV-1" vertex="1">
          <mxGeometry x="400" y="450" width="50" height="20" as="geometry" />
        </mxCell>
        <mxCell id="TD6lh_5WmE-RjXGW3gYd-19" value="(0,n)" style="rounded=0;whiteSpace=wrap;html=1;fillColor=#a20025;fontColor=#ffffff;strokeColor=#6F0000;" parent="WIyWlLk6GJQsqaUBKTNV-1" vertex="1">
          <mxGeometry x="20" y="300" width="50" height="20" as="geometry" />
        </mxCell>
        <mxCell id="TD6lh_5WmE-RjXGW3gYd-20" value="(0,n)" style="rounded=0;whiteSpace=wrap;html=1;fillColor=#a20025;fontColor=#ffffff;strokeColor=#6F0000;" parent="WIyWlLk6GJQsqaUBKTNV-1" vertex="1">
          <mxGeometry x="20" y="430" width="50" height="20" as="geometry" />
        </mxCell>
        <mxCell id="TD6lh_5WmE-RjXGW3gYd-32" value="Mirar Libro" style="rhombus;whiteSpace=wrap;html=1;shadow=0;fontFamily=Helvetica;fontSize=12;align=center;strokeWidth=1;spacing=6;spacingTop=-4;" parent="WIyWlLk6GJQsqaUBKTNV-1" vertex="1">
          <mxGeometry x="30" y="585" width="100" height="80" as="geometry" />
        </mxCell>
        <mxCell id="WTI3wyCMAWQvAZfBReZO-0" value="" style="endArrow=none;html=1;rounded=0;exitX=0.5;exitY=0;exitDx=0;exitDy=0;" edge="1" parent="WIyWlLk6GJQsqaUBKTNV-1">
          <mxGeometry width="50" height="50" relative="1" as="geometry">
            <mxPoint x="79.5" y="330" as="sourcePoint" />
            <mxPoint x="80" y="280" as="targetPoint" />
          </mxGeometry>
        </mxCell>
        <mxCell id="WTI3wyCMAWQvAZfBReZO-1" value="LIBROS" style="rounded=0;whiteSpace=wrap;html=1;fontSize=12;glass=0;strokeWidth=1;shadow=0;fillColor=#1ba1e2;fontColor=#ffffff;strokeColor=#006EAF;" vertex="1" parent="WIyWlLk6GJQsqaUBKTNV-1">
          <mxGeometry x="20" y="715" width="120" height="40" as="geometry" />
        </mxCell>
        <mxCell id="WTI3wyCMAWQvAZfBReZO-2" value="" style="endArrow=none;html=1;rounded=0;entryX=0.5;entryY=1;entryDx=0;entryDy=0;" edge="1" parent="WIyWlLk6GJQsqaUBKTNV-1">
          <mxGeometry width="50" height="50" relative="1" as="geometry">
            <mxPoint x="80" y="715" as="sourcePoint" />
            <mxPoint x="79.5" y="665" as="targetPoint" />
          </mxGeometry>
        </mxCell>
        <mxCell id="WTI3wyCMAWQvAZfBReZO-3" value="(1,1)" style="rounded=0;whiteSpace=wrap;html=1;fillColor=#a20025;fontColor=#ffffff;strokeColor=#6F0000;" vertex="1" parent="WIyWlLk6GJQsqaUBKTNV-1">
          <mxGeometry x="20" y="685" width="50" height="20" as="geometry" />
        </mxCell>
        <mxCell id="WTI3wyCMAWQvAZfBReZO-4" value="(0,n)" style="rounded=0;whiteSpace=wrap;html=1;fillColor=#a20025;fontColor=#ffffff;strokeColor=#6F0000;" vertex="1" parent="WIyWlLk6GJQsqaUBKTNV-1">
          <mxGeometry x="150" y="450" width="50" height="20" as="geometry" />
        </mxCell>
        <mxCell id="WTI3wyCMAWQvAZfBReZO-5" value="TÃ­tulo" style="rhombus;whiteSpace=wrap;html=1;shadow=0;fontFamily=Helvetica;fontSize=12;align=center;strokeWidth=1;spacing=6;spacingTop=-4;" vertex="1" parent="WIyWlLk6GJQsqaUBKTNV-1">
          <mxGeometry x="270" y="585" width="100" height="80" as="geometry" />
        </mxCell>
        <mxCell id="WTI3wyCMAWQvAZfBReZO-6" value="Autor" style="rhombus;whiteSpace=wrap;html=1;shadow=0;fontFamily=Helvetica;fontSize=12;align=center;strokeWidth=1;spacing=6;spacingTop=-4;" vertex="1" parent="WIyWlLk6GJQsqaUBKTNV-1">
          <mxGeometry x="270" y="695" width="100" height="80" as="geometry" />
        </mxCell>
        <mxCell id="WTI3wyCMAWQvAZfBReZO-7" value="Nacionalidad" style="rhombus;whiteSpace=wrap;html=1;shadow=0;fontFamily=Helvetica;fontSize=12;align=center;strokeWidth=1;spacing=6;spacingTop=-4;" vertex="1" parent="WIyWlLk6GJQsqaUBKTNV-1">
          <mxGeometry x="460" y="795" width="100" height="80" as="geometry" />
        </mxCell>
        <mxCell id="WTI3wyCMAWQvAZfBReZO-8" value="Editorial" style="rhombus;whiteSpace=wrap;html=1;shadow=0;fontFamily=Helvetica;fontSize=12;align=center;strokeWidth=1;spacing=6;spacingTop=-4;" vertex="1" parent="WIyWlLk6GJQsqaUBKTNV-1">
          <mxGeometry x="270" y="795" width="100" height="80" as="geometry" />
        </mxCell>
        <mxCell id="WTI3wyCMAWQvAZfBReZO-10" value="" style="endArrow=none;html=1;rounded=0;exitX=0;exitY=0.5;exitDx=0;exitDy=0;entryX=1;entryY=0.5;entryDx=0;entryDy=0;" edge="1" parent="WIyWlLk6GJQsqaUBKTNV-1" source="WTI3wyCMAWQvAZfBReZO-6">
          <mxGeometry width="50" height="50" relative="1" as="geometry">
            <mxPoint x="234.5" y="755" as="sourcePoint" />
            <mxPoint x="190" y="735" as="targetPoint" />
          </mxGeometry>
        </mxCell>
        <mxCell id="WTI3wyCMAWQvAZfBReZO-18" value="(0,n)" style="rounded=0;whiteSpace=wrap;html=1;fillColor=#a20025;fontColor=#ffffff;strokeColor=#6F0000;" vertex="1" parent="WIyWlLk6GJQsqaUBKTNV-1">
          <mxGeometry x="200" y="745" width="40" height="20" as="geometry" />
        </mxCell>
        <mxCell id="WTI3wyCMAWQvAZfBReZO-20" value="(1,n)" style="rounded=0;whiteSpace=wrap;html=1;fillColor=#a20025;fontColor=#ffffff;strokeColor=#6F0000;" vertex="1" parent="WIyWlLk6GJQsqaUBKTNV-1">
          <mxGeometry x="400" y="745" width="40" height="20" as="geometry" />
        </mxCell>
        <mxCell id="WTI3wyCMAWQvAZfBReZO-25" value="AUTORES" style="rounded=0;whiteSpace=wrap;html=1;fontSize=12;glass=0;strokeWidth=1;shadow=0;fillColor=#1ba1e2;fontColor=#ffffff;strokeColor=#006EAF;" vertex="1" parent="WIyWlLk6GJQsqaUBKTNV-1">
          <mxGeometry x="450" y="715" width="120" height="40" as="geometry" />
        </mxCell>
        <mxCell id="WTI3wyCMAWQvAZfBReZO-26" value="" style="endArrow=none;html=1;rounded=0;entryX=1;entryY=0.5;entryDx=0;entryDy=0;exitX=0;exitY=0.5;exitDx=0;exitDy=0;" edge="1" parent="WIyWlLk6GJQsqaUBKTNV-1" source="WTI3wyCMAWQvAZfBReZO-25">
          <mxGeometry width="50" height="50" relative="1" as="geometry">
            <mxPoint x="410" y="735" as="sourcePoint" />
            <mxPoint x="370" y="734.5" as="targetPoint" />
          </mxGeometry>
        </mxCell>
        <mxCell id="WTI3wyCMAWQvAZfBReZO-27" value="" style="endArrow=none;html=1;rounded=0;exitX=0.5;exitY=0;exitDx=0;exitDy=0;entryX=0.5;entryY=1;entryDx=0;entryDy=0;" edge="1" parent="WIyWlLk6GJQsqaUBKTNV-1" source="WTI3wyCMAWQvAZfBReZO-7" target="WTI3wyCMAWQvAZfBReZO-25">
          <mxGeometry width="50" height="50" relative="1" as="geometry">
            <mxPoint x="469.5" y="785" as="sourcePoint" />
            <mxPoint x="470" y="755" as="targetPoint" />
          </mxGeometry>
        </mxCell>
        <mxCell id="WTI3wyCMAWQvAZfBReZO-28" value="NACIONALIDAD" style="rounded=0;whiteSpace=wrap;html=1;fontSize=12;glass=0;strokeWidth=1;shadow=0;fillColor=#1ba1e2;fontColor=#ffffff;strokeColor=#006EAF;" vertex="1" parent="WIyWlLk6GJQsqaUBKTNV-1">
          <mxGeometry x="450" y="905" width="120" height="40" as="geometry" />
        </mxCell>
        <mxCell id="WTI3wyCMAWQvAZfBReZO-29" value="" style="endArrow=none;html=1;rounded=0;exitX=0.5;exitY=0;exitDx=0;exitDy=0;" edge="1" parent="WIyWlLk6GJQsqaUBKTNV-1">
          <mxGeometry width="50" height="50" relative="1" as="geometry">
            <mxPoint x="509.5" y="905" as="sourcePoint" />
            <mxPoint x="510" y="875" as="targetPoint" />
          </mxGeometry>
        </mxCell>
        <mxCell id="WTI3wyCMAWQvAZfBReZO-30" value="" style="endArrow=none;html=1;rounded=0;exitX=1;exitY=0.5;exitDx=0;exitDy=0;entryX=0;entryY=0.5;entryDx=0;entryDy=0;" edge="1" parent="WIyWlLk6GJQsqaUBKTNV-1" target="WTI3wyCMAWQvAZfBReZO-8">
          <mxGeometry width="50" height="50" relative="1" as="geometry">
            <mxPoint x="190" y="735" as="sourcePoint" />
            <mxPoint x="260" y="775" as="targetPoint" />
            <Array as="points">
              <mxPoint x="190" y="835" />
            </Array>
          </mxGeometry>
        </mxCell>
        <mxCell id="WTI3wyCMAWQvAZfBReZO-31" value="EDITORIALES" style="rounded=0;whiteSpace=wrap;html=1;fontSize=12;glass=0;strokeWidth=1;shadow=0;fillColor=#1ba1e2;fontColor=#ffffff;strokeColor=#006EAF;" vertex="1" parent="WIyWlLk6GJQsqaUBKTNV-1">
          <mxGeometry x="260" y="905" width="120" height="40" as="geometry" />
        </mxCell>
        <mxCell id="WTI3wyCMAWQvAZfBReZO-32" value="" style="endArrow=none;html=1;rounded=0;exitX=0.5;exitY=0;exitDx=0;exitDy=0;" edge="1" parent="WIyWlLk6GJQsqaUBKTNV-1">
          <mxGeometry width="50" height="50" relative="1" as="geometry">
            <mxPoint x="319.5" y="905" as="sourcePoint" />
            <mxPoint x="320" y="875" as="targetPoint" />
          </mxGeometry>
        </mxCell>
        <mxCell id="WTI3wyCMAWQvAZfBReZO-33" value="" style="endArrow=none;html=1;rounded=0;exitX=1;exitY=0.5;exitDx=0;exitDy=0;entryX=0;entryY=0.5;entryDx=0;entryDy=0;" edge="1" parent="WIyWlLk6GJQsqaUBKTNV-1" target="WTI3wyCMAWQvAZfBReZO-5">
          <mxGeometry width="50" height="50" relative="1" as="geometry">
            <mxPoint x="190" y="735" as="sourcePoint" />
            <mxPoint x="310" y="695" as="targetPoint" />
            <Array as="points">
              <mxPoint x="190" y="625" />
            </Array>
          </mxGeometry>
        </mxCell>
        <mxCell id="WTI3wyCMAWQvAZfBReZO-34" value="TITULO" style="rounded=0;whiteSpace=wrap;html=1;fontSize=12;glass=0;strokeWidth=1;shadow=0;fillColor=#1ba1e2;fontColor=#ffffff;strokeColor=#006EAF;" vertex="1" parent="WIyWlLk6GJQsqaUBKTNV-1">
          <mxGeometry x="450" y="605" width="120" height="40" as="geometry" />
        </mxCell>
        <mxCell id="WTI3wyCMAWQvAZfBReZO-35" value="" style="endArrow=none;html=1;rounded=0;entryX=1;entryY=0.5;entryDx=0;entryDy=0;" edge="1" parent="WIyWlLk6GJQsqaUBKTNV-1" source="WTI3wyCMAWQvAZfBReZO-34">
          <mxGeometry width="50" height="50" relative="1" as="geometry">
            <mxPoint x="410" y="625" as="sourcePoint" />
            <mxPoint x="370" y="624.5" as="targetPoint" />
          </mxGeometry>
        </mxCell>
        <mxCell id="WTI3wyCMAWQvAZfBReZO-36" value="(0,n)" style="rounded=0;whiteSpace=wrap;html=1;fillColor=#a20025;fontColor=#ffffff;strokeColor=#6F0000;" vertex="1" parent="WIyWlLk6GJQsqaUBKTNV-1">
          <mxGeometry x="520" y="765" width="40" height="20" as="geometry" />
        </mxCell>
        <mxCell id="WTI3wyCMAWQvAZfBReZO-37" value="(0,n)" style="rounded=0;whiteSpace=wrap;html=1;fillColor=#a20025;fontColor=#ffffff;strokeColor=#6F0000;" vertex="1" parent="WIyWlLk6GJQsqaUBKTNV-1">
          <mxGeometry x="520" y="875" width="40" height="20" as="geometry" />
        </mxCell>
        <mxCell id="WTI3wyCMAWQvAZfBReZO-38" value="(0,1)" style="rounded=0;whiteSpace=wrap;html=1;fillColor=#a20025;fontColor=#ffffff;strokeColor=#6F0000;" vertex="1" parent="WIyWlLk6GJQsqaUBKTNV-1">
          <mxGeometry x="400" y="595" width="40" height="20" as="geometry" />
        </mxCell>
        <mxCell id="WTI3wyCMAWQvAZfBReZO-39" value="(0,n)" style="rounded=0;whiteSpace=wrap;html=1;fillColor=#a20025;fontColor=#ffffff;strokeColor=#6F0000;" vertex="1" parent="WIyWlLk6GJQsqaUBKTNV-1">
          <mxGeometry x="195" y="695" width="40" height="20" as="geometry" />
        </mxCell>
        <mxCell id="WTI3wyCMAWQvAZfBReZO-40" value="(1,1)" style="rounded=0;whiteSpace=wrap;html=1;fillColor=#a20025;fontColor=#ffffff;strokeColor=#6F0000;" vertex="1" parent="WIyWlLk6GJQsqaUBKTNV-1">
          <mxGeometry x="270" y="875" width="40" height="20" as="geometry" />
        </mxCell>
        <mxCell id="WTI3wyCMAWQvAZfBReZO-42" value="Proceso de datos de la reserva" style="ellipse;whiteSpace=wrap;html=1;fillColor=#6a00ff;fontColor=#ffffff;strokeColor=#3700CC;" vertex="1" parent="WIyWlLk6GJQsqaUBKTNV-1">
          <mxGeometry x="240" y="220" width="120" height="80" as="geometry" />
        </mxCell>
        <mxCell id="WTI3wyCMAWQvAZfBReZO-43" value="" style="endArrow=none;html=1;rounded=0;entryX=0;entryY=0.5;entryDx=0;entryDy=0;exitX=1;exitY=0.5;exitDx=0;exitDy=0;" edge="1" parent="WIyWlLk6GJQsqaUBKTNV-1" source="TD6lh_5WmE-RjXGW3gYd-4" target="WTI3wyCMAWQvAZfBReZO-42">
          <mxGeometry width="50" height="50" relative="1" as="geometry">
            <mxPoint x="145" y="160" as="sourcePoint" />
            <mxPoint x="195" y="110" as="targetPoint" />
          </mxGeometry>
        </mxCell>
        <mxCell id="WTI3wyCMAWQvAZfBReZO-44" value="" style="endArrow=none;html=1;rounded=0;exitX=0.5;exitY=0;exitDx=0;exitDy=0;" edge="1" parent="WIyWlLk6GJQsqaUBKTNV-1" source="TD6lh_5WmE-RjXGW3gYd-32">
          <mxGeometry width="50" height="50" relative="1" as="geometry">
            <mxPoint x="80" y="580" as="sourcePoint" />
            <mxPoint x="80" y="500" as="targetPoint" />
          </mxGeometry>
        </mxCell>
        <mxCell id="WTI3wyCMAWQvAZfBReZO-45" value="" style="endArrow=none;html=1;rounded=0;entryX=0;entryY=0.5;entryDx=0;entryDy=0;exitX=1;exitY=0.5;exitDx=0;exitDy=0;" edge="1" parent="WIyWlLk6GJQsqaUBKTNV-1" source="WIyWlLk6GJQsqaUBKTNV-3" target="TD6lh_5WmE-RjXGW3gYd-10">
          <mxGeometry width="50" height="50" relative="1" as="geometry">
            <mxPoint x="360" y="530" as="sourcePoint" />
            <mxPoint x="410" y="480" as="targetPoint" />
          </mxGeometry>
        </mxCell>
        <mxCell id="WTI3wyCMAWQvAZfBReZO-46" value="" style="endArrow=none;html=1;rounded=0;exitX=1;exitY=0.5;exitDx=0;exitDy=0;" edge="1" parent="WIyWlLk6GJQsqaUBKTNV-1" source="WTI3wyCMAWQvAZfBReZO-1">
          <mxGeometry width="50" height="50" relative="1" as="geometry">
            <mxPoint x="140" y="785" as="sourcePoint" />
            <mxPoint x="190" y="735" as="targetPoint" />
          </mxGeometry>
        </mxCell>
      </root>
    </mxGraphModel>
  </diagram>
</mxfile>
